<?xml version="1.0" encoding="UTF-8" standalone="no"?>

<svg version="1.1" width="512" height="512" viewBox="0 0 512 512" xmlns="http://www.w3.org/2000/svg" xmlns:svg="http://www.w3.org/2000/svg">
   <g transform="matrix(1.0331892,0,0,-1.0331892,14.865219,518.25343)">
      <g id="garmin" style="fill:#494848" transform="translate(-13.550277,-5.8072617)">
         <g transform="translate(-27.100555,3.8715078)">
            <g transform="translate(50.8746,355.4381)" >
               <path d="m 0,0 c 7.414,-24.23 32.571,-17.874 37.541,-16.353 16.446,5.034 22.035,11.606 22.265,11.886 0.85,0.896 1.743,2.454 1.07,4.653 L 55.76,16.91 c -0.472,1.541 -2.111,2.412 -3.652,1.94 L 31.448,12.526 C 29.904,12.053 29.274,10.488 29.745,8.947 l 0.53,-1.732 c 0.473,-1.544 1.872,-2.491 3.416,-2.019 l 11.951,3.658 c 1.154,0.354 2.378,-0.297 2.73,-1.45 0,0 2.232,-7.334 2.374,-7.799 C 48.68,-2.082 38.888,-8.515 29.617,-9.099 16.166,-9.937 12.026,0.104 11.078,3.202 c -0.795,2.599 -4.001,15.861 10.989,21.89 12.132,4.881 21.877,2.36 21.973,2.337 1.698,-0.311 3.048,0.693 3.389,2.494 10e-4,0.014 0.591,3.626 0.591,3.626 0.249,1.489 -0.377,2.761 -2.28,3.348 -0.124,0.028 -10.307,2.09 -23.86,-2.058 C -7.039,25.986 -0.805,2.633 0,0" />
            </g>
         </g>
         <g transform="translate(241.8251,422.4654)" >
            <path d="m 0,0 c -0.294,-1.376 -1.369,-1.7 -2.375,-0.72 l -21.987,21.545 c -0.966,1.017 -2.495,1.628 -4.205,1.104 l -7.636,-2.337 c -1.346,-0.412 -2.112,-1.848 -1.7,-3.195 l 13.741,-44.912 c 0.411,-1.343 1.576,-1.992 3.141,-1.513 l 4.745,1.453 c 1.348,0.412 2.059,1.558 1.662,2.856 -0.191,0.622 -9.975,32.671 -9.924,32.687 0.052,0.016 27.564,-27.278 27.564,-27.278 0.996,-0.991 2.555,-0.519 2.841,0.859 0,0 7.698,37.979 7.75,37.995 0.055,0.017 9.715,-31.626 10.001,-32.56 0.397,-1.298 1.695,-1.829 3.042,-1.417 l 5.466,1.673 c 1.348,0.413 2.24,1.419 1.697,3.195 L 20.137,34.163 c -0.412,1.347 -1.845,2.11 -3.193,1.697 L 9.625,33.62 C 7.757,33.048 6.924,31.751 6.615,30.377 Z m 108.841,63.989 c -1.345,-0.411 -2.161,-1.631 -1.765,-2.926 0.191,-0.622 8.816,-28.76 8.816,-28.76 0.412,-1.348 -0.256,-1.888 -1.486,-1.205 L 76.464,52.157 c -1.231,0.682 -2.841,1.052 -4.685,0.488 L 66.363,50.987 C 64.66,50.466 64.193,49.329 64.474,48.408 64.755,47.491 78.266,3.332 78.548,2.411 78.829,1.493 79.971,0.885 81.318,1.298 l 5.425,1.66 c 1.342,0.411 2.06,1.431 1.681,2.67 -0.19,0.621 -9.243,30.311 -9.243,30.311 -0.412,1.345 0.255,1.885 1.484,1.199 l 39.582,-22.029 c 1.246,-0.663 2.643,-1.086 4.704,-0.456 l 4.075,1.248 c 1.348,0.412 2.111,1.849 1.699,3.195 L 117.04,63.824 c -0.412,1.348 -1.848,2.109 -3.196,1.697 z M -61.435,-11.74 c -1.403,-0.81 -3.081,-1.4 -3.081,-1.4 -1.325,-0.47 -3.51,-1.19 -4.855,-1.602 l -11.421,-3.496 c -1.346,-0.412 -2.783,0.352 -3.195,1.698 l -2.788,9.111 c -0.412,1.346 0.352,2.784 1.698,3.196 l 11.421,3.496 c 1.345,0.411 3.559,1.036 4.92,1.391 0,0 1.72,0.453 3.336,0.566 1.617,0.114 2.963,-0.006 4.031,-0.366 1.073,-0.362 1.928,-0.91 2.568,-1.646 0.635,-0.737 1.109,-1.607 1.419,-2.619 0.308,-1.007 0.403,-1.998 0.289,-2.964 -0.119,-0.967 -0.52,-1.901 -1.207,-2.801 -0.683,-0.9 -1.73,-1.758 -3.135,-2.564 m 7.433,-7.713 c -1.11,0.864 -1.058,2.211 0.113,2.989 0,0 4.656,3.104 6.437,6.055 1.779,2.957 2.038,6.521 0.768,10.672 -0.831,2.715 -2.004,4.853 -3.517,6.42 -1.512,1.563 -3.33,2.663 -5.449,3.284 -2.119,0.627 -4.491,0.836 -7.112,0.62 -2.625,-0.221 -5.992,-1.081 -5.992,-1.081 -1.364,-0.35 -3.579,-0.973 -4.922,-1.384 L -98.311,0.581 c -1.343,-0.411 -2.108,-1.846 -1.696,-3.194 l 13.759,-44.969 c 0.412,-1.347 1.775,-1.868 3.119,-1.457 l 5.83,1.784 c 1.345,0.412 2.184,1.608 1.772,2.955 0,0 -5.469,17.887 -5.458,17.89 0,0 0.013,0.016 0.009,0.028 -0.004,0.015 11.043,3.41 11.043,3.41 1.343,0.411 3.355,0.044 4.469,-0.82 l 16.416,-12.642 c 1.503,-1.105 2.687,-1.35 4.033,-0.939 l 7.619,2.333 c 1.346,0.412 1.169,1.744 0.502,2.262 -0.663,0.514 -17.108,13.325 -17.108,13.325 m 90.787,58.611 c 0.134,-0.438 13.497,-44.112 13.767,-44.995 0.379,-1.239 1.739,-1.751 3.086,-1.338 l 5.932,1.816 c 1.345,0.411 2.183,1.607 1.771,2.954 L 47.582,42.564 c -0.412,1.347 -1.617,2.179 -2.962,1.768 L 38.456,42.445 C 37.109,42.032 36.262,40.868 36.785,39.158 M -134.57,-49.4 c -1.345,-0.412 -2.285,0.396 -2.092,1.787 l 2.947,20.946 c 0.196,1.394 1.119,1.668 2.048,0.618 l 13.936,-15.777 c 0.93,-1.053 0.59,-2.252 -0.754,-2.663 z m 3.506,37.564 c -0.967,1.021 -2.859,1.516 -4.206,1.104 l -2.738,-0.838 c -1.345,-0.412 -2.615,-1.888 -2.825,-3.278 l -7.832,-52 c -0.236,-1.385 0.682,-2.042 2.029,-1.63 l 5.017,1.535 c 1.98,0.607 2.612,1.784 2.811,3.053 0.2,1.268 0.662,4.033 0.741,4.593 0.106,0.756 0.936,1.454 2.282,1.865 l 23.361,7.136 c 1.347,0.41 2.291,0.419 2.932,-0.255 0.418,-0.439 2.271,-2.23 3.22,-3.228 0.951,-0.997 2.241,-1.658 4.17,-1.068 l 7.279,2.229 c 1.345,0.411 1.622,1.614 0.847,2.414 -0.776,0.804 -37.088,38.368 -37.088,38.368"/>
         </g>
      </g>
      <g id="icon" style="fill:#11aeed" transform="matrix(1.2996031,0,0,1,-99.928311,0)">
         <g transform="matrix(0.729032,0,0,0.765158,9.052458,-151.61087)" >
            <path d="m 339.386,545.311 c -19.162,0 -36.827,-4.645 -52.995,-13.938 -16.167,-9.294 -28.892,-22.034 -38.172,-38.22 -9.282,-16.187 -13.923,-33.872 -13.923,-53.057 0,-14.389 2.695,-28.028 8.084,-40.917 5.391,-12.889 12.875,-24.131 22.456,-33.723 l -53.892,-40.467 c -13.773,14.989 -24.551,32.373 -32.336,52.158 -7.784,19.784 -11.676,40.767 -11.676,62.949 0,23.981 4.492,46.313 13.473,66.996 8.982,20.683 21.408,38.969 37.274,54.855 15.87,15.887 34.133,28.327 54.792,37.32 20.658,8.993 42.962,13.49 66.915,13.49 v 38.668 l 96.106,-71.942 -96.106,-71.942 z m 0,-277.876 c 23.952,0 46.256,4.496 66.915,13.489 20.659,8.993 38.923,21.434 54.791,37.32 15.868,15.888 28.294,34.172 37.276,54.857 8.981,20.682 13.473,43.015 13.473,66.995 0,22.183 -3.893,43.165 -11.678,62.948 -7.784,19.785 -18.563,37.173 -32.335,52.158 l -53.891,-40.466 c 9.58,-9.592 17.065,-20.833 22.455,-33.723 5.389,-12.889 8.083,-26.529 8.083,-40.917 0,-19.184 -4.641,-36.871 -13.922,-53.057 -9.281,-16.187 -22.006,-28.926 -38.174,-38.22 -16.167,-9.292 -33.832,-13.939 -52.993,-13.939 v 37.77 l -96.107,-71.942 96.107,-71.942 z" />
         </g>
      </g>
   </g>
</svg>
